<svg width="91" height="52" viewBox="0 0 91 52" fill="none" xmlns="http://www.w3.org/2000/svg">
<g filter="url(#filter0_d_1:448)">
<ellipse cx="7.15405" cy="3.13376" rx="3.15399" ry="3.13351" fill="#EE3D48"/>
<ellipse cx="7.15399" cy="12.5341" rx="3.15399" ry="3.13351" fill="#EE3D48"/>
<ellipse cx="7.15399" cy="21.9345" rx="3.15399" ry="3.13351" fill="#EE3D48"/>
<ellipse cx="7.15399" cy="31.3352" rx="3.15399" ry="3.13351" fill="#EE3D48"/>
<ellipse cx="7.15399" cy="40.7358" rx="3.15399" ry="3.13351" fill="#EE3D48"/>
<ellipse cx="16.616" cy="3.13351" rx="3.15399" ry="3.13351" fill="#EE3D48"/>
<ellipse cx="16.616" cy="12.5341" rx="3.15399" ry="3.13351" fill="#EE3D48"/>
<ellipse cx="16.616" cy="21.9345" rx="3.15399" ry="3.13351" fill="#EE3D48"/>
<ellipse cx="16.616" cy="31.3352" rx="3.15399" ry="3.13351" fill="#EE3D48"/>
<ellipse cx="16.616" cy="40.7358" rx="3.15399" ry="3.13351" fill="#EE3D48"/>
<ellipse cx="26.0779" cy="3.13351" rx="3.15399" ry="3.13351" fill="#EE3D48"/>
<ellipse cx="26.0779" cy="12.5341" rx="3.15399" ry="3.13351" fill="#EE3D48"/>
<ellipse cx="26.0779" cy="21.9345" rx="3.15399" ry="3.13351" fill="#EE3D48"/>
<ellipse cx="26.0779" cy="31.3352" rx="3.15399" ry="3.13351" fill="#EE3D48"/>
<ellipse cx="26.0779" cy="40.7358" rx="3.15399" ry="3.13351" fill="#EE3D48"/>
<ellipse cx="35.5399" cy="3.13351" rx="3.15399" ry="3.13351" fill="#EE3D48"/>
<ellipse cx="35.5399" cy="12.5341" rx="3.15399" ry="3.13351" fill="#EE3D48"/>
<ellipse cx="35.5399" cy="21.9345" rx="3.15399" ry="3.13351" fill="#EE3D48"/>
<ellipse cx="35.5399" cy="31.3352" rx="3.15399" ry="3.13351" fill="#EE3D48"/>
<ellipse cx="35.5399" cy="40.7358" rx="3.15399" ry="3.13351" fill="#EE3D48"/>
<ellipse cx="45.0019" cy="3.13351" rx="3.15399" ry="3.13351" fill="#EE3D48"/>
<ellipse cx="54.4639" cy="3.13351" rx="3.15399" ry="3.13351" fill="#EE3D48"/>
<ellipse cx="63.9258" cy="3.13351" rx="3.15399" ry="3.13351" fill="#EE3D48"/>
<ellipse cx="73.3878" cy="3.13351" rx="3.15399" ry="3.13351" fill="#EE3D48"/>
<ellipse cx="82.8497" cy="3.13351" rx="3.15399" ry="3.13351" fill="#EE3D48"/>
<ellipse cx="45.0019" cy="12.5341" rx="3.15399" ry="3.13351" fill="#EE3D48"/>
<ellipse cx="54.4639" cy="12.5341" rx="3.15399" ry="3.13351" fill="#EE3D48"/>
<ellipse cx="63.9258" cy="12.5341" rx="3.15399" ry="3.13351" fill="#EE3D48"/>
<ellipse cx="73.3878" cy="12.5341" rx="3.15399" ry="3.13351" fill="#EE3D48"/>
<ellipse cx="82.8497" cy="12.5341" rx="3.15399" ry="3.13351" fill="#EE3D48"/>
<ellipse cx="45.0019" cy="21.9345" rx="3.15399" ry="3.13351" fill="#EE3D48"/>
<ellipse cx="54.4639" cy="21.9345" rx="3.15399" ry="3.13351" fill="#EE3D48"/>
<ellipse cx="63.9258" cy="21.9345" rx="3.15399" ry="3.13351" fill="#EE3D48"/>
<ellipse cx="73.3878" cy="21.9345" rx="3.15399" ry="3.13351" fill="#EE3D48"/>
<ellipse cx="82.8497" cy="21.9345" rx="3.15399" ry="3.13351" fill="#EE3D48"/>
<ellipse cx="45.0019" cy="31.3352" rx="3.15399" ry="3.13351" fill="#EE3D48"/>
<ellipse cx="54.4639" cy="31.3352" rx="3.15399" ry="3.13351" fill="#EE3D48"/>
<ellipse cx="63.9258" cy="31.3352" rx="3.15399" ry="3.13351" fill="#EE3D48"/>
<ellipse cx="73.3878" cy="31.3352" rx="3.15399" ry="3.13351" fill="#EE3D48"/>
<ellipse cx="82.8497" cy="31.3352" rx="3.15399" ry="3.13351" fill="#EE3D48"/>
<ellipse cx="45.0019" cy="40.7358" rx="3.15399" ry="3.13351" fill="#EE3D48"/>
<ellipse cx="54.4639" cy="40.7358" rx="3.15399" ry="3.13351" fill="#EE3D48"/>
<ellipse cx="63.9258" cy="40.7358" rx="3.15399" ry="3.13351" fill="#EE3D48"/>
<ellipse cx="73.3878" cy="40.7358" rx="3.15399" ry="3.13351" fill="#EE3D48"/>
<ellipse cx="82.8497" cy="40.7358" rx="3.15399" ry="3.13351" fill="#EE3D48"/>
</g>
<defs>
<filter id="filter0_d_1:448" x="0" y="0" width="90.0037" height="51.8694" filterUnits="userSpaceOnUse" color-interpolation-filters="sRGB">
<feFlood flood-opacity="0" result="BackgroundImageFix"/>
<feColorMatrix in="SourceAlpha" type="matrix" values="0 0 0 0 0 0 0 0 0 0 0 0 0 0 0 0 0 0 127 0" result="hardAlpha"/>
<feOffset dy="4"/>
<feGaussianBlur stdDeviation="2"/>
<feComposite in2="hardAlpha" operator="out"/>
<feColorMatrix type="matrix" values="0 0 0 0 0 0 0 0 0 0 0 0 0 0 0 0 0 0 0.25 0"/>
<feBlend mode="normal" in2="BackgroundImageFix" result="effect1_dropShadow_1:448"/>
<feBlend mode="normal" in="SourceGraphic" in2="effect1_dropShadow_1:448" result="shape"/>
</filter>
</defs>
</svg>
